<svg version="1.1" id="Layer_1" xmlns="http://www.w3.org/2000/svg" xmlns:xlink="http://www.w3.org/1999/xlink" x="0px" y="0px"
	 width="100%" viewBox="0 0 528 160" enable-background="new 0 0 528 160" xml:space="preserve">
<path fill="#000000" opacity="1.000000" stroke="none" 
	d="
M507.852386,91.894112 
	C504.900848,94.469299 499.982086,96.004211 503.742401,100.944786 
	C506.039886,103.963417 509.540100,103.074471 513.855957,98.724564 
	C515.436279,97.131805 516.982422,95.505089 518.967957,93.456612 
	C518.503113,98.503502 512.870544,104.335541 508.304749,105.050278 
	C503.864319,105.745377 501.683868,102.946426 500.115753,98.987396 
	C496.733124,101.483276 494.837494,104.821335 492.816406,108.000031 
	C488.399841,114.946335 486.448700,115.753731 477.129456,113.669296 
	C481.506287,103.719337 488.995605,95.495949 492.827972,84.926102 
	C489.549286,84.618179 488.181305,86.472504 486.951996,88.074120 
	C483.207092,92.953125 479.665527,97.987885 476.024994,102.947449 
	C473.750702,106.045761 471.179016,108.877220 468.291443,111.420517 
	C465.175659,114.164772 461.477264,115.285622 457.633514,113.893242 
	C454.058380,112.598183 452.242828,109.565605 452.660339,104.865799 
	C448.129974,108.026535 445.636292,112.823708 440.604370,114.096359 
	C435.458069,115.397934 432.583710,113.692818 428.849731,106.976067 
	C425.190460,110.195641 422.417358,114.860756 416.563538,114.353035 
	C410.836334,113.856300 408.470978,109.894867 407.057892,105.393387 
	C404.968445,107.211349 402.962738,108.896156 401.024231,110.655083 
	C396.426819,114.826553 390.743774,115.636131 386.974976,112.609291 
	C383.058502,109.463844 382.532928,104.832253 385.833069,99.094269 
	C388.614716,94.257744 391.739044,89.618309 395.032532,84.381424 
	C390.178955,83.681351 387.915131,86.564781 385.630524,88.909477 
	C380.372711,94.305542 376.137024,100.485664 372.623322,107.156296 
	C368.380157,115.211899 368.372467,115.207855 358.628601,113.778374 
	C357.683258,111.968498 358.970062,110.599274 359.734161,109.249496 
	C370.152985,90.844971 380.640503,72.479324 391.069733,54.080666 
	C392.337585,51.844013 393.729095,50.248379 396.598206,51.314491 
	C399.159088,52.266075 401.793182,50.073711 404.870178,51.490952 
	C399.577454,63.135578 391.469727,72.978462 385.981903,84.289421 
	C386.145294,84.349266 386.333099,84.487190 386.419617,84.439880 
	C392.833893,80.931641 397.002136,80.782921 400.114868,83.967659 
	C403.362579,87.290527 403.107452,92.339973 399.534637,98.213020 
	C397.081390,102.245743 394.053314,105.984322 392.381134,110.344650 
	C395.008057,112.580894 396.617249,110.891220 398.128021,109.784729 
	C402.638763,106.481102 405.852905,102.013206 408.763763,97.327690 
	C413.359833,89.929550 419.868378,85.006371 428.127716,82.444672 
	C431.646515,81.353279 435.291809,80.680908 438.629669,83.135880 
	C439.386078,83.692238 440.054504,83.889290 440.853790,83.288239 
	C444.618988,80.456848 448.776489,82.356812 454.169312,81.776436 
	C448.178650,92.014229 442.752167,101.287819 437.061157,111.013496 
	C441.637360,112.174347 443.785309,109.961700 445.807465,107.876900 
	C451.508850,101.998993 456.261414,95.381065 460.594818,88.444748 
	C465.318451,80.883743 466.413055,80.472618 476.553589,82.565933 
	C471.042847,91.985634 465.675751,101.159752 460.240509,110.450371 
	C464.018372,112.563698 465.829163,110.381165 467.562775,108.819580 
	C472.171051,104.668564 475.821533,99.690720 479.132019,94.474037 
	C481.099609,91.373528 483.209595,88.401848 485.727264,85.715401 
	C488.648621,82.598190 492.043884,80.368080 496.327972,82.224007 
	C500.516510,84.038567 501.259674,87.947998 500.779572,92.287575 
	C502.545990,88.483597 504.406616,84.919060 507.955139,82.738205 
	C510.081757,81.431244 512.797180,79.982277 514.692078,82.466187 
	C516.523071,84.866280 514.184631,86.763428 512.485901,88.327065 
	C511.145264,89.561028 509.595795,90.568146 507.852386,91.894112 
M425.038361,92.523972 
	C421.770813,96.519089 419.041199,100.839737 417.065155,105.622940 
	C416.283203,107.515694 415.474182,109.709969 417.215607,111.150291 
	C419.067657,112.682137 421.054321,111.314964 422.497223,109.901688 
	C428.844696,103.684525 433.595001,96.379890 436.920776,88.148788 
	C437.356689,87.070015 437.773315,85.918549 436.672577,84.947357 
	C435.481415,83.896385 434.209656,84.221703 432.978943,84.852882 
	C429.789032,86.488861 427.644989,89.243797 425.038361,92.523972 
z"/>
<path fill="#000000" opacity="1.000000" stroke="none" 
	d="
M346.869019,77.795601 
	C340.238464,88.874535 333.796356,99.641373 327.354279,110.408211 
	C327.850250,110.806236 328.346222,111.204269 328.842194,111.602303 
	C338.505402,109.831108 341.116333,99.579315 348.341034,94.734413 
	C343.608490,102.104195 339.836060,110.427643 330.980286,113.943764 
	C325.849945,115.980721 322.399170,113.475967 319.070648,106.442780 
	C306.101227,116.815872 300.855560,116.873016 297.249176,106.430351 
	C293.601471,109.680443 291.046234,114.426338 285.277710,114.364014 
	C279.190277,114.298256 276.675903,110.286484 274.977936,105.269905 
	C260.433655,117.324150 254.844101,117.294258 251.976059,104.821518 
	C246.930786,109.304832 242.275742,114.091660 235.031799,114.404221 
	C227.482040,114.729980 222.768021,111.225700 220.312393,103.895302 
	C217.872238,106.121666 215.899078,108.120667 213.723694,109.867897 
	C208.140137,114.352531 201.856522,115.989433 195.062836,113.228111 
	C188.044037,110.375282 185.992126,103.956024 189.359360,96.646584 
	C193.101013,88.524330 205.417343,81.146721 214.281326,81.648521 
	C217.348480,81.822159 220.051926,82.762230 220.920532,85.901360 
	C221.742081,88.870407 219.789352,90.917229 217.532333,92.564964 
	C213.418564,95.568230 208.678391,97.103302 203.829773,98.389923 
	C201.523682,99.001854 199.414185,99.873131 198.458099,102.375298 
	C197.364410,105.237640 196.271317,108.211052 198.430130,110.900414 
	C200.675613,113.697762 203.725616,112.495071 206.273544,111.436134 
	C212.952652,108.660240 217.971695,103.803543 221.620911,97.659172 
	C226.283508,89.808510 232.876129,84.500916 241.658325,82.240013 
	C245.399307,81.276917 249.825638,80.066353 252.072906,85.059471 
	C253.927017,89.179039 251.510910,96.182198 247.706375,98.359169 
	C245.654678,99.533165 243.561981,99.881508 241.834351,97.865631 
	C240.195755,95.953644 240.463318,93.857048 241.769455,91.864769 
	C243.205551,89.674263 245.602982,88.744743 247.718140,87.438606 
	C248.772964,86.787216 249.597610,85.871231 248.609634,84.585220 
	C247.843796,83.588394 246.747879,83.799934 245.914108,84.413177 
	C238.155380,90.119926 232.597427,97.449760 230.430283,106.919098 
	C229.677032,110.210442 232.087067,111.743378 235.212494,111.854088 
	C238.737167,111.978928 241.602493,110.332222 244.322296,108.290573 
	C251.554459,102.861687 256.230072,95.370529 260.934875,87.887810 
	C265.288361,80.963860 267.060791,80.335533 276.181335,82.633453 
	C271.732697,92.420685 264.809387,100.807899 260.498474,110.575462 
	C263.887604,112.525551 265.620361,110.519379 267.281433,109.095184 
	C271.229828,105.709862 274.345825,101.604935 277.025299,97.141228 
	C281.619080,89.488548 288.394928,84.646545 296.922638,82.267235 
	C300.688049,81.216644 304.478790,80.893776 307.724365,83.880585 
	C311.942047,80.692596 316.472107,82.026634 321.984528,82.086876 
	C316.075897,92.102280 310.650970,101.297829 305.039215,110.810020 
	C309.359619,112.461990 311.527252,110.136902 313.559631,108.152481 
	C318.712494,103.121208 322.819031,97.249084 326.521912,91.094284 
	C333.047272,80.248070 339.601532,69.418900 346.062164,58.534225 
	C350.607483,50.876438 351.321106,50.520393 361.928711,52.589066 
	C356.862427,61.069984 351.959930,69.276749 346.869019,77.795601 
M286.017273,103.513977 
	C285.031830,106.049622 282.544556,109.083763 285.586792,111.125252 
	C288.571899,113.128403 290.793060,109.907707 292.571167,107.900932 
	C297.221588,102.652473 301.148132,96.853683 304.025208,90.436211 
	C304.821594,88.659798 306.862976,86.374840 304.236664,84.702148 
	C302.052155,83.310837 300.055756,85.078300 298.489197,86.512596 
	C293.406586,91.166046 289.404327,96.663155 286.017273,103.513977 
M208.723999,93.223595 
	C211.666611,90.847046 214.017929,88.149918 214.230728,83.315720 
	C207.359680,85.607246 205.015427,90.969017 201.504562,96.229088 
	C204.620468,95.985443 206.350922,94.720360 208.723999,93.223595 
z"/>
<path fill="#000000" opacity="1.000000" stroke="none" 
	d="
M86.720901,115.822067 
	C82.837090,117.438110 78.727356,115.377731 74.929314,117.831390 
	C83.194778,124.118301 91.495377,120.486969 99.555946,118.449738 
	C99.914017,120.082718 99.205009,120.559952 98.485146,120.964790 
	C90.988075,125.181137 76.901688,124.043381 70.578926,118.423912 
	C68.492081,116.569199 66.376396,115.543388 63.677593,114.909988 
	C52.908974,112.382607 44.268799,107.502502 43.601887,94.809906 
	C43.472504,92.347488 41.544960,91.996582 39.831234,91.495811 
	C30.992622,88.913086 24.547491,83.667442 22.928682,74.349205 
	C21.132677,64.010986 24.714283,55.212196 32.972267,48.703499 
	C41.188911,42.227386 50.745239,39.102009 61.187542,38.676277 
	C70.544632,38.294788 79.760132,39.204754 88.866570,41.447590 
	C91.910683,42.197327 94.908401,42.083488 98.129265,41.222523 
	C107.579445,38.696407 117.202026,38.781555 126.778656,40.828846 
	C127.910622,41.070843 129.063232,41.416889 130.080658,41.953060 
	C132.320847,43.133602 134.739532,44.482586 134.073425,47.543922 
	C133.444916,50.432472 130.996353,51.128559 128.323181,51.376060 
	C120.289886,52.119839 112.899132,49.261627 105.339828,47.371292 
	C98.952927,45.774132 89.826820,54.976551 91.528076,61.375153 
	C92.202332,63.911137 94.027100,64.535973 96.450790,64.654144 
	C99.270775,64.791641 102.404251,63.746468 105.039246,66.142708 
	C103.600479,69.104279 101.277603,68.278084 99.308449,67.952988 
	C96.502518,67.489746 93.698547,66.927162 90.876129,67.350914 
	C84.891357,68.249466 79.489235,69.295509 77.108749,76.574371 
	C74.837227,83.520065 68.656517,87.436447 62.007919,90.277512 
	C55.109745,93.225204 53.024723,100.971642 57.403633,107.239334 
	C59.158916,109.751732 61.499592,111.461868 65.317879,112.406906 
	C63.301949,103.354584 64.643089,95.562088 69.747299,88.293953 
	C76.909027,78.096008 100.392609,68.925568 112.331093,72.131821 
	C119.293541,74.001686 122.807930,80.214684 120.948647,87.748550 
	C118.039871,99.534973 109.904388,106.803879 99.477997,111.916260 
	C95.585297,113.824966 91.432045,115.093193 86.720901,115.822067 
M70.125427,53.280518 
	C67.113373,50.678532 62.648453,51.144440 59.105747,48.360470 
	C63.482986,46.893356 66.849457,48.282093 70.076744,49.959717 
	C76.330208,53.210403 78.797432,59.111336 80.245201,65.543877 
	C82.404831,65.385399 84.543465,66.449577 85.981476,63.930004 
	C79.506577,56.572666 83.055061,50.306667 88.749634,44.390736 
	C75.678108,40.487293 57.735332,41.369835 46.401768,46.565701 
	C36.609646,51.054897 29.061745,57.634735 26.734449,68.823608 
	C24.818033,78.037109 31.886942,88.150383 41.204189,89.426384 
	C42.859772,89.653107 44.155491,89.399940 44.916332,87.738472 
	C50.006630,76.622551 59.750214,71.589890 70.666077,68.144997 
	C77.482643,65.993790 78.376534,63.704037 74.365150,57.753975 
	C73.360870,56.264324 71.936966,55.057571 70.125427,53.280518 
M112.042374,97.529503 
	C112.498116,97.046257 112.982285,96.586571 113.405281,96.076195 
	C118.510574,89.916237 120.156174,82.947304 117.510590,78.742279 
	C114.770073,74.386330 108.380074,72.998573 100.175476,75.239525 
	C87.930717,78.583969 78.655319,86.055992 71.638786,96.441895 
	C69.479836,99.637581 68.161606,103.178162 68.309235,107.201569 
	C68.511841,112.723160 69.588409,113.980453 75.123947,113.946320 
	C89.525856,113.857536 101.404030,107.911949 112.042374,97.529503 
M112.257469,42.444492 
	C110.370972,42.914043 108.340767,42.960529 106.264954,44.541702 
	C113.128838,47.047001 119.813026,48.635860 126.685974,49.251598 
	C128.292023,49.395493 130.815369,49.282269 131.110046,46.963852 
	C131.404266,44.649181 129.064423,44.202812 127.409882,43.611042 
	C122.763947,41.949333 117.926178,42.166679 112.257469,42.444492 
M69.801949,82.309547 
	C72.354904,79.819618 74.582787,77.146286 75.534637,72.661827 
	C68.586540,76.793449 63.327839,81.268539 58.912178,88.123535 
	C63.831280,87.570061 66.370132,84.825523 69.801949,82.309547 
z"/>
<path fill="#000000" opacity="1.000000" stroke="none" 
	d="
M143.967026,108.018204 
	C147.479752,104.997398 148.960968,100.618843 151.290176,96.830559 
	C156.169983,88.893898 160.641464,80.707367 165.439240,72.718712 
	C169.495117,65.965378 170.914398,65.517189 179.919388,67.537979 
	C177.175125,72.559929 174.507828,77.441063 171.750977,82.486046 
	C179.890900,80.942078 183.221161,81.929359 185.908401,86.535828 
	C188.635086,91.209915 187.750534,96.895073 183.444672,102.237984 
	C178.685898,108.142876 172.549164,112.034805 165.281830,113.927132 
	C161.593765,114.887459 157.646240,115.341644 154.811020,110.776855 
	C148.505783,121.678818 142.410828,132.149963 136.384247,142.660324 
	C132.162521,150.023026 130.218552,150.824341 120.990059,148.302048 
	C127.739960,134.492523 137.265564,122.398422 143.916290,108.319489 
	C143.997284,107.989090 143.967026,108.018204 143.967026,108.018204 
M157.489532,108.647339 
	C158.378906,113.671356 161.274963,111.945961 163.417252,110.042435 
	C169.949036,104.238586 174.817398,97.159012 178.171143,89.080132 
	C178.809067,87.543442 179.282135,85.709435 177.824448,84.442413 
	C176.208328,83.037704 174.684570,84.467384 173.332932,85.268959 
	C172.213974,85.932556 171.177414,86.844688 170.330383,87.839226 
	C165.145416,93.927132 160.675003,100.478661 157.489532,108.647339 
z"/>
<path fill="#000000" opacity="1.000000" stroke="none" 
	d="
M144.008881,107.971497 
	C139.308899,112.437698 133.628708,114.381790 127.202217,114.357368 
	C120.788521,114.333000 117.662300,112.414314 116.803009,107.988647 
	C115.687737,102.244598 118.784821,95.773674 123.742950,93.809258 
	C131.490433,90.739693 136.234802,84.935478 139.091537,77.340599 
	C139.150192,77.184654 139.205734,77.027473 139.267242,76.872665 
	C140.318634,74.226517 141.242310,71.429077 144.605057,70.896492 
	C145.653229,70.730476 146.727570,71.161728 146.943085,72.295364 
	C147.495056,75.198799 145.417221,77.102798 143.647903,78.634232 
	C138.844055,82.792221 140.100891,87.025513 142.774551,91.546555 
	C145.747406,96.573479 148.103012,101.689293 144.077255,107.682800 
	C143.967026,108.018204 143.997284,107.989090 144.008881,107.971497 
M127.748558,102.470497 
	C126.030861,103.056000 124.322960,103.672508 122.592979,104.219124 
	C120.452057,104.895607 118.899864,106.085770 119.679054,108.535820 
	C120.419579,110.864296 122.241196,111.956993 124.717018,111.566452 
	C127.157410,111.181503 128.835831,109.568985 130.348907,107.763771 
	C135.340469,101.808502 137.575363,94.978531 136.915176,86.618828 
	C133.478668,90.183052 129.382980,92.674522 130.365860,98.279800 
	C130.633942,99.808609 129.697937,101.139687 127.748558,102.470497 
z"/>
<path fill="#000000" opacity="1.000000" stroke="none" 
	d="
M470.755554,73.083763 
	C471.408875,68.128014 474.273163,65.275970 478.167969,63.365005 
	C480.179626,62.377987 482.433838,62.102440 484.176178,63.917767 
	C485.902527,65.716446 485.519104,67.907310 484.582581,69.959961 
	C483.145203,73.110382 480.809967,75.437935 477.572144,76.679230 
	C474.303314,77.932404 471.646545,77.522659 470.755554,73.083763 
z"/>
<path fill="#000000" opacity="1.000000" stroke="none" 
	d="
M271.803955,69.244781 
	C273.139282,67.032181 274.583588,65.422234 276.458252,64.281006 
	C278.966827,62.753853 281.771820,61.479130 284.188934,63.993793 
	C286.380890,66.274185 285.286316,68.965561 283.868866,71.350891 
	C282.746124,73.240265 281.212402,74.777313 279.292725,75.850739 
	C277.077240,77.089577 274.685516,78.298630 272.339874,76.399727 
	C269.982697,74.491531 270.475098,72.014877 271.803955,69.244781 
z"/>
</svg>